<?xml version="1.0" encoding="utf-8"?>
<!-- Generator: Adobe Illustrator 21.0.0, SVG Export Plug-In . SVG Version: 6.00 Build 0)  -->
<svg version="1.1" id="Capa_1" xmlns="http://www.w3.org/2000/svg" xmlns:xlink="http://www.w3.org/1999/xlink" x="0px" y="0px"
	 viewBox="0 0 640 156" style="enable-background:new 0 0 640 156;" xml:space="preserve">
<style type="text/css">
	.st0{fill:#D7D8DC;}
	.st1{fill:#6A2781;}
	.st2{fill:url(#SVGID_1_);}
	.st3{fill:url(#SVGID_2_);}
	.st4{fill:url(#SVGID_3_);}
	.st5{fill:url(#SVGID_4_);}
	.st6{fill:url(#SVGID_5_);}
	.st7{fill:url(#SVGID_6_);}
	.st8{fill:url(#SVGID_7_);}
	.st9{fill:url(#SVGID_8_);}
	.st10{fill:url(#SVGID_9_);}
	.st11{fill:url(#SVGID_10_);}
	.st12{fill:url(#SVGID_11_);}
	.st13{fill:url(#SVGID_12_);}
	.st14{fill:url(#SVGID_13_);}
	.st15{fill:url(#SVGID_14_);}
	.st16{fill:url(#SVGID_15_);}
	.st17{fill:url(#SVGID_16_);}
	.st18{fill:#CA666C;}
	.st19{fill:#B33F3E;}
	.st20{fill:#9E3937;}
	.st21{opacity:0.22;}
	.st22{fill:#E2B2A3;}
	.st23{fill:url(#SVGID_17_);}
	.st24{fill:url(#SVGID_18_);}
	.st25{opacity:0.29;}
	.st26{fill:url(#SVGID_19_);}
	.st27{fill:url(#SVGID_20_);}
	.st28{opacity:0.65;}
	.st29{fill:#D6A497;}
</style>
<g>
	<g>
		<g>
			<path class="st0" d="M152.2,52.1c7.6,0,13.8,2.9,18.9,8.7c5,5.8,7.5,12.8,7.5,21.1v19.9c0,1.7-0.1,3-0.2,3.9
				c-0.1,0.9-0.4,1.8-1,2.9c-1.1,2-4,3.1-8.8,3.1c-5.4,0-8.5-1.4-9.3-4.2c-0.5-1.3-0.7-3.2-0.7-5.8V81.8c0-3.1-0.9-5.5-2.7-7.3
				c-1.8-1.7-4.2-2.6-7.1-2.6c-3,0-5.4,0.9-7.3,2.7c-1.9,1.8-2.8,4.2-2.8,7.1v20.1c0,1.7-0.1,3-0.2,3.9c-0.1,0.9-0.5,1.8-1.1,2.9
				c-1,2-3.9,3.1-8.7,3.1c-4.8,0-7.7-1-8.7-3.1c-0.5-1.1-0.9-2.1-1-3c-0.1-0.9-0.2-2.2-0.2-3.9V61.6c0-1.7,0.1-2.9,0.2-3.8
				c0.1-0.9,0.5-1.8,1.1-2.9c1.1-1.9,4-2.8,8.7-2.8c4.6,0,7.4,0.9,8.5,2.6c0.8,1.3,1.1,2.8,1.1,4.6c0.3-0.5,1-1.3,2-2.3
				c1.1-1,2.1-1.8,3.1-2.4C146.2,52.9,149.1,52.1,152.2,52.1z"/>
			<path class="st0" d="M226.4,58.4c0.5-4.2,3.4-6.3,9-6.3c2.9,0,5.1,0.2,6.6,0.7c1.4,0.5,2.4,1.2,3,2.4c0.6,1.1,0.9,2.1,1,3
				c0.1,0.9,0.2,2.2,0.2,3.9v39.7c0,1.7-0.1,3-0.2,3.9c-0.1,0.9-0.4,1.9-1,3c-1.1,2-3.6,2.9-7.8,2.9c-4.1,0-6.9-0.5-8.3-1.5
				c-1.4-1-2.2-2.5-2.4-4.5c-2.8,4-7.5,6-14,6c-6.5,0-12.6-3-18.2-9c-5.6-6-8.4-12.9-8.4-20.8c0-7.9,2.8-14.8,8.4-20.7
				c5.6-5.9,11.8-8.9,18.5-8.9c2.6,0,4.9,0.5,7,1.4c2.1,0.9,3.6,1.8,4.4,2.6C225.2,56.9,225.9,57.7,226.4,58.4z M205.8,82
				c0,2.5,1,4.7,2.9,6.7c2,2,4.3,3,7.1,3c2.8,0,5.1-1,7-3.1c1.9-2,2.8-4.3,2.8-6.7c0-2.5-0.9-4.7-2.7-6.9c-1.8-2.1-4.2-3.2-7.1-3.2
				c-3,0-5.4,1.1-7.3,3.2C206.7,77.2,205.8,79.5,205.8,82z"/>
			<path class="st0" d="M289.9,72.1l-7.4-0.5v15.6c0,2,0.3,3.5,1,4.4c0.6,0.9,1.9,1.4,3.6,1.4c1.8,0,3.1,0.1,4.1,0.2
				c0.9,0.1,1.9,0.5,3,1.1c1.7,1,2.6,3.5,2.6,7.6c0,4.8-1.1,7.7-3.2,8.7c-1.1,0.5-2.1,0.9-3,1c-0.9,0.1-2.1,0.2-3.8,0.2
				c-7.9,0-13.8-1.8-17.9-5.3c-4.1-3.6-6.1-9.6-6.1-18V71.7c-1.4,0.2-3,0.3-4.6,0.3c-1.7,0-3-0.6-4.1-1.9c-1.1-1.3-1.6-3.5-1.6-6.6
				c0-3.1,0.2-5.3,0.6-6.7c0.4-1.4,0.9-2.4,1.6-3c1.2-1,2.7-1.5,4.5-1.5l3.7,0.5V41.1c0-1.7,0.1-3,0.2-3.9c0.1-0.8,0.5-1.7,1.1-2.7
				c1-1.9,3.9-2.8,8.7-2.8c5.1,0,8.2,1.4,9.2,4.2c0.4,1.2,0.6,3.1,0.6,5.8v11.1c3.3-0.3,5.8-0.5,7.5-0.5c1.7,0,3,0.1,3.9,0.2
				c0.9,0.1,1.9,0.5,3,1.1c2,1,2.9,3.9,2.9,8.7c0,4.8-1,7.7-3.1,8.7c-1.1,0.5-2.1,0.9-3,1C292.9,72.1,291.6,72.1,289.9,72.1z"/>
			<path class="st0" d="M324.7,41c-0.6,1.1-1.6,1.9-3,2.3c-1.4,0.5-3.3,0.7-5.7,0.7c-2.4,0-4.3-0.2-5.7-0.7c-1.4-0.5-2.4-1.2-3-2.4
				c-0.6-1.1-0.9-2.1-1-3c-0.1-0.9-0.2-2.2-0.2-3.9c0-1.7,0.1-3,0.2-3.9c0.1-0.9,0.4-1.8,1-2.9c1.1-2,4-3.1,8.8-3.1
				c4.8,0,7.6,1,8.6,3.1c0.6,1.1,1,2.1,1.1,3c0.1,0.9,0.2,2.2,0.2,3.9c0,1.7-0.1,3-0.2,3.9C325.6,38.9,325.3,39.9,324.7,41z
				 M306.1,62c0-1.7,0.1-3,0.2-3.9c0.1-0.9,0.4-1.9,1-3c1.1-2,4-2.9,8.8-2.9c3.6,0,6.2,0.6,7.7,1.9c1.3,1.1,2,2.7,2,4.9
				c0.1,0.8,0.1,1.9,0.1,3.3v39.7c0,1.7-0.1,3-0.2,3.9c-0.1,0.9-0.5,1.9-1.1,3c-1,2-3.9,2.9-8.7,2.9c-4.8,0-7.7-1-8.7-3.1
				c-0.5-1.1-0.9-2.1-1-2.9c-0.1-0.8-0.2-2.2-0.2-4V62z"/>
			<path class="st0" d="M355.9,91.7c2.5,0,4.3,0.6,5.6,1.9c1.2,1.3,1.8,3.9,1.8,7.9c0,4-0.6,6.7-1.9,8c-1.3,1.3-3.1,2-5.6,2
				c-7.6,0-13-1.8-16.1-5.5c-3.1-3.7-4.6-9.8-4.6-18.3V33.7c0-1.7,0.1-3,0.2-3.9c0.1-0.9,0.4-1.9,1-3c1.1-2,4-2.9,8.8-2.9
				c4.6,0,7.5,1.1,8.6,3.2c0.6,1.1,1,2,1.1,2.9c0.1,0.9,0.2,2.2,0.2,3.9v54.4C354.8,90.6,355.2,91.7,355.9,91.7z M386.3,91.1
				c0.6,0.5,2.2,0.7,4.6,0.7c2.5,0,4.6,0.6,6.2,1.9c1.7,1.3,2.5,3.9,2.5,7.9c0,4-0.9,6.7-2.7,8c-1.8,1.3-4.3,2-7.4,2
				c-16,0-24-7.9-24-23.8l-0.1-54.1c0-1.7,0.1-3,0.2-3.9c0.1-0.9,0.5-1.9,1.1-3c1.1-2,4.1-2.9,8.8-2.9c4.6,0,7.5,1.1,8.6,3.2
				c0.8,1.7,1.2,3.9,1.2,6.8v54.4C385.4,89.7,385.7,90.6,386.3,91.1z"/>
			<path class="st0" d="M444.7,58.4c0.5-4.2,3.4-6.3,9-6.3c2.9,0,5.1,0.2,6.6,0.7c1.4,0.5,2.4,1.2,3,2.4c0.6,1.1,0.9,2.1,1,3
				c0.1,0.9,0.2,2.2,0.2,3.9v39.7c0,1.7-0.1,3-0.2,3.9c-0.1,0.9-0.4,1.9-1,3c-1.1,2-3.6,2.9-7.8,2.9c-4.1,0-6.9-0.5-8.3-1.5
				c-1.4-1-2.2-2.5-2.4-4.5c-2.8,4-7.5,6-14,6c-6.5,0-12.6-3-18.2-9c-5.6-6-8.4-12.9-8.4-20.8c0-7.9,2.8-14.8,8.4-20.7
				c5.6-5.9,11.8-8.9,18.5-8.9c2.6,0,4.9,0.5,7,1.4c2.1,0.9,3.6,1.8,4.4,2.6C443.5,56.9,444.2,57.7,444.7,58.4z M424.1,82
				c0,2.5,1,4.7,2.9,6.7c2,2,4.3,3,7.1,3c2.8,0,5.1-1,7-3.1c1.9-2,2.8-4.3,2.8-6.7c0-2.5-0.9-4.7-2.7-6.9c-1.8-2.1-4.2-3.2-7.1-3.2
				c-3,0-5.4,1.1-7.3,3.2C425,77.2,424.1,79.5,424.1,82z"/>
			<path class="st0" d="M473.5,128V61.8c0-1.7,0.1-3,0.2-3.9c0.1-0.8,0.4-1.8,1-2.8c1.1-2,3.6-3.1,7.6-3.1c4,0,6.7,0.5,8.1,1.5
				c1.4,1,2.2,2.5,2.4,4.5c2.9-3.9,7.4-5.9,13.5-5.9c6.2,0,12,2.9,17.5,8.7c5.5,5.8,8.3,12.6,8.3,20.3c0,7.7-2.7,14.5-8.2,20.3
				c-5.5,5.8-11.3,8.7-17.5,8.7c-6.2,0-10.7-1.7-13.5-5.2v22.9c0,1.7-0.1,3-0.2,3.9c-0.1,0.8-0.5,1.8-1,2.9
				c-0.6,1.1-1.5,1.9-2.9,2.3c-1.4,0.5-3.2,0.7-5.6,0.7c-2.3,0-4.2-0.2-5.6-0.7c-1.4-0.5-2.4-1.2-2.9-2.3c-0.6-1.1-0.9-2-1-2.8
				C473.6,131,473.5,129.7,473.5,128z M495.9,74.6c-1.7,2-2.6,4.3-2.6,6.7c0,2.4,0.9,4.6,2.7,6.6c1.8,2,4,3,6.8,3c2.8,0,5.1-1,7-2.9
				c1.9-2,2.9-4.2,2.9-6.7c0-2.5-0.9-4.7-2.7-6.7c-1.8-2-4.2-3-7.1-3C500,71.6,497.7,72.6,495.9,74.6z"/>
			<path class="st0" d="M539.5,128V61.8c0-1.7,0.1-3,0.2-3.9c0.1-0.8,0.4-1.8,1-2.8c1.1-2,3.6-3.1,7.6-3.1c4,0,6.7,0.5,8.1,1.5
				c1.4,1,2.2,2.5,2.4,4.5c2.9-3.9,7.4-5.9,13.5-5.9c6.2,0,12,2.9,17.5,8.7c5.5,5.8,8.3,12.6,8.3,20.3c0,7.7-2.7,14.5-8.2,20.3
				c-5.5,5.8-11.3,8.7-17.5,8.7c-6.2,0-10.7-1.7-13.5-5.2v22.9c0,1.7-0.1,3-0.2,3.9c-0.1,0.8-0.5,1.8-1,2.9
				c-0.6,1.1-1.5,1.9-2.9,2.3c-1.4,0.5-3.2,0.7-5.6,0.7c-2.3,0-4.2-0.2-5.6-0.7c-1.4-0.5-2.4-1.2-2.9-2.3c-0.6-1.1-0.9-2-1-2.8
				C539.5,131,539.5,129.7,539.5,128z M561.9,74.6c-1.7,2-2.6,4.3-2.6,6.7c0,2.4,0.9,4.6,2.7,6.6c1.8,2,4,3,6.8,3c2.8,0,5.1-1,7-2.9
				c1.9-2,2.9-4.2,2.9-6.7c0-2.5-0.9-4.7-2.7-6.7c-1.8-2-4.2-3-7.1-3C566,71.6,563.6,72.6,561.9,74.6z"/>
		</g>
		<g>
			<path class="st1" d="M152.2,46.7c7.6,0,13.8,2.9,18.9,8.7c5,5.8,7.5,12.8,7.5,21.1v19.9c0,1.7-0.1,3-0.2,3.9
				c-0.1,0.9-0.4,1.8-1,2.9c-1.1,2-4,3.1-8.8,3.1c-5.4,0-8.5-1.4-9.3-4.2c-0.5-1.3-0.7-3.2-0.7-5.8V76.4c0-3.1-0.9-5.5-2.7-7.3
				c-1.8-1.7-4.2-2.6-7.1-2.6c-3,0-5.4,0.9-7.3,2.7c-1.9,1.8-2.8,4.2-2.8,7.1v20.1c0,1.7-0.1,3-0.2,3.9c-0.1,0.9-0.5,1.8-1.1,2.9
				c-1,2-3.9,3.1-8.7,3.1c-4.8,0-7.7-1-8.7-3.1c-0.5-1.1-0.9-2.1-1-3c-0.1-0.9-0.2-2.2-0.2-3.9V56.2c0-1.7,0.1-2.9,0.2-3.8
				c0.1-0.9,0.5-1.8,1.1-2.9c1.1-1.9,4-2.8,8.7-2.8c4.6,0,7.4,0.9,8.5,2.6c0.8,1.3,1.1,2.8,1.1,4.6c0.3-0.5,1-1.3,2-2.3
				c1.1-1,2.1-1.8,3.1-2.4C146.2,47.5,149.1,46.7,152.2,46.7z"/>
			<path class="st1" d="M226.4,53c0.5-4.2,3.4-6.3,9-6.3c2.9,0,5.1,0.2,6.6,0.7c1.4,0.5,2.4,1.2,3,2.4c0.6,1.1,0.9,2.1,1,3
				c0.1,0.9,0.2,2.2,0.2,3.9v39.7c0,1.7-0.1,3-0.2,3.9c-0.1,0.9-0.4,1.9-1,3c-1.1,2-3.6,2.9-7.8,2.9c-4.1,0-6.9-0.5-8.3-1.5
				c-1.4-1-2.2-2.5-2.4-4.5c-2.8,4-7.5,6-14,6c-6.5,0-12.6-3-18.2-9c-5.6-6-8.4-12.9-8.4-20.8c0-7.9,2.8-14.8,8.4-20.7
				c5.6-5.9,11.8-8.9,18.5-8.9c2.6,0,4.9,0.5,7,1.4c2.1,0.9,3.6,1.8,4.4,2.6C225.2,51.5,225.9,52.3,226.4,53z M205.8,76.6
				c0,2.5,1,4.7,2.9,6.7c2,2,4.3,3,7.1,3c2.8,0,5.1-1,7-3.1c1.9-2,2.8-4.3,2.8-6.7c0-2.5-0.9-4.7-2.7-6.9c-1.8-2.1-4.2-3.2-7.1-3.2
				c-3,0-5.4,1.1-7.3,3.2C206.7,71.8,205.8,74.1,205.8,76.6z"/>
			<path class="st1" d="M289.9,66.7l-7.4-0.5v15.6c0,2,0.3,3.5,1,4.4c0.6,0.9,1.9,1.4,3.6,1.4c1.8,0,3.1,0.1,4.1,0.2
				c0.9,0.1,1.9,0.5,3,1.1c1.7,1,2.6,3.5,2.6,7.6c0,4.8-1.1,7.7-3.2,8.7c-1.1,0.5-2.1,0.9-3,1c-0.9,0.1-2.1,0.2-3.8,0.2
				c-7.9,0-13.8-1.8-17.9-5.3c-4.1-3.6-6.1-9.6-6.1-18V66.3c-1.4,0.2-3,0.3-4.6,0.3c-1.7,0-3-0.6-4.1-1.9c-1.1-1.3-1.6-3.5-1.6-6.6
				c0-3.1,0.2-5.3,0.6-6.7c0.4-1.4,0.9-2.4,1.6-3c1.2-1,2.7-1.5,4.5-1.5l3.7,0.5V35.7c0-1.7,0.1-3,0.2-3.9c0.1-0.8,0.5-1.7,1.1-2.7
				c1-1.9,3.9-2.8,8.7-2.8c5.1,0,8.2,1.4,9.2,4.2c0.4,1.2,0.6,3.1,0.6,5.8v11.1c3.3-0.3,5.8-0.5,7.5-0.5c1.7,0,3,0.1,3.9,0.2
				c0.9,0.1,1.9,0.5,3,1.1c2,1,2.9,3.9,2.9,8.7c0,4.8-1,7.7-3.1,8.7c-1.1,0.5-2.1,0.9-3,1C292.9,66.7,291.6,66.7,289.9,66.7z"/>
			<path class="st1" d="M324.7,35.6c-0.6,1.1-1.6,1.9-3,2.3c-1.4,0.5-3.3,0.7-5.7,0.7c-2.4,0-4.3-0.2-5.7-0.7
				c-1.4-0.5-2.4-1.2-3-2.4c-0.6-1.1-0.9-2.1-1-3c-0.1-0.9-0.2-2.2-0.2-3.9c0-1.7,0.1-3,0.2-3.9c0.1-0.9,0.4-1.8,1-2.9
				c1.1-2,4-3.1,8.8-3.1c4.8,0,7.6,1,8.6,3.1c0.6,1.1,1,2.1,1.1,3c0.1,0.9,0.2,2.2,0.2,3.9c0,1.7-0.1,3-0.2,3.9
				C325.6,33.5,325.3,34.5,324.7,35.6z M306.1,56.7c0-1.7,0.1-3,0.2-3.9c0.1-0.9,0.4-1.9,1-3c1.1-2,4-2.9,8.8-2.9
				c3.6,0,6.2,0.6,7.7,1.9c1.3,1.1,2,2.7,2,4.9c0.1,0.8,0.1,1.9,0.1,3.3v39.7c0,1.7-0.1,3-0.2,3.9c-0.1,0.9-0.5,1.9-1.1,3
				c-1,2-3.9,2.9-8.7,2.9c-4.8,0-7.7-1-8.7-3.1c-0.5-1.1-0.9-2.1-1-2.9c-0.1-0.8-0.2-2.2-0.2-4V56.7z"/>
			<path class="st1" d="M355.9,86.3c2.5,0,4.3,0.6,5.6,1.9c1.2,1.3,1.8,3.9,1.8,7.9c0,4-0.6,6.7-1.9,8c-1.3,1.3-3.1,2-5.6,2
				c-7.6,0-13-1.8-16.1-5.5c-3.1-3.7-4.6-9.8-4.6-18.3V28.3c0-1.7,0.1-3,0.2-3.9c0.1-0.9,0.4-1.9,1-3c1.1-2,4-2.9,8.8-2.9
				c4.6,0,7.5,1.1,8.6,3.2c0.6,1.1,1,2,1.1,2.9c0.1,0.9,0.2,2.2,0.2,3.9v54.4C354.8,85.2,355.2,86.3,355.9,86.3z M386.3,85.7
				c0.6,0.5,2.2,0.7,4.6,0.7c2.5,0,4.6,0.6,6.2,1.9c1.7,1.3,2.5,3.9,2.5,7.9c0,4-0.9,6.7-2.7,8c-1.8,1.3-4.3,2-7.4,2
				c-16,0-24-7.9-24-23.8l-0.1-54.1c0-1.7,0.1-3,0.2-3.9c0.1-0.9,0.5-1.9,1.1-3c1.1-2,4.1-2.9,8.8-2.9c4.6,0,7.5,1.1,8.6,3.2
				c0.8,1.7,1.2,3.9,1.2,6.8v54.4C385.4,84.3,385.7,85.2,386.3,85.7z"/>
			<path class="st1" d="M444.7,53c0.5-4.2,3.4-6.3,9-6.3c2.9,0,5.1,0.2,6.6,0.7c1.4,0.5,2.4,1.2,3,2.4c0.6,1.1,0.9,2.1,1,3
				c0.1,0.9,0.2,2.2,0.2,3.9v39.7c0,1.7-0.1,3-0.2,3.9c-0.1,0.9-0.4,1.9-1,3c-1.1,2-3.6,2.9-7.8,2.9c-4.1,0-6.9-0.5-8.3-1.5
				c-1.4-1-2.2-2.5-2.4-4.5c-2.8,4-7.5,6-14,6c-6.5,0-12.6-3-18.2-9c-5.6-6-8.4-12.9-8.4-20.8c0-7.9,2.8-14.8,8.4-20.7
				c5.6-5.9,11.8-8.9,18.5-8.9c2.6,0,4.9,0.5,7,1.4c2.1,0.9,3.6,1.8,4.4,2.6C443.5,51.5,444.2,52.3,444.7,53z M424.1,76.6
				c0,2.5,1,4.7,2.9,6.7c2,2,4.3,3,7.1,3c2.8,0,5.1-1,7-3.1c1.9-2,2.8-4.3,2.8-6.7c0-2.5-0.9-4.7-2.7-6.9c-1.8-2.1-4.2-3.2-7.1-3.2
				c-3,0-5.4,1.1-7.3,3.2C425,71.8,424.1,74.1,424.1,76.6z"/>
			<path class="st1" d="M473.5,122.6V56.4c0-1.7,0.1-3,0.2-3.9c0.1-0.8,0.4-1.8,1-2.8c1.1-2,3.6-3.1,7.6-3.1c4,0,6.7,0.5,8.1,1.5
				c1.4,1,2.2,2.5,2.4,4.5c2.9-3.9,7.4-5.9,13.5-5.9c6.2,0,12,2.9,17.5,8.7c5.5,5.8,8.3,12.6,8.3,20.3c0,7.7-2.7,14.5-8.2,20.3
				c-5.5,5.8-11.3,8.7-17.5,8.7c-6.2,0-10.7-1.7-13.5-5.2v22.9c0,1.7-0.1,3-0.2,3.9c-0.1,0.8-0.5,1.8-1,2.9
				c-0.6,1.1-1.5,1.9-2.9,2.3c-1.4,0.5-3.2,0.7-5.6,0.7c-2.3,0-4.2-0.2-5.6-0.7c-1.4-0.5-2.4-1.2-2.9-2.3c-0.6-1.1-0.9-2-1-2.8
				C473.6,125.6,473.5,124.4,473.5,122.6z M495.9,69.2c-1.7,2-2.6,4.3-2.6,6.7c0,2.4,0.9,4.6,2.7,6.6c1.8,2,4,3,6.8,3
				c2.8,0,5.1-1,7-2.9c1.9-2,2.9-4.2,2.9-6.7c0-2.5-0.9-4.7-2.7-6.7c-1.8-2-4.2-3-7.1-3C500,66.2,497.7,67.2,495.9,69.2z"/>
			<path class="st1" d="M539.5,122.6V56.4c0-1.7,0.1-3,0.2-3.9c0.1-0.8,0.4-1.8,1-2.8c1.1-2,3.6-3.1,7.6-3.1c4,0,6.7,0.5,8.1,1.5
				c1.4,1,2.2,2.5,2.4,4.5c2.9-3.9,7.4-5.9,13.5-5.9c6.2,0,12,2.9,17.5,8.7c5.5,5.8,8.3,12.6,8.3,20.3c0,7.7-2.7,14.5-8.2,20.3
				c-5.5,5.8-11.3,8.7-17.5,8.7c-6.2,0-10.7-1.7-13.5-5.2v22.9c0,1.7-0.1,3-0.2,3.9c-0.1,0.8-0.5,1.8-1,2.9
				c-0.6,1.1-1.5,1.9-2.9,2.3c-1.4,0.5-3.2,0.7-5.6,0.7c-2.3,0-4.2-0.2-5.6-0.7c-1.4-0.5-2.4-1.2-2.9-2.3c-0.6-1.1-0.9-2-1-2.8
				C539.5,125.6,539.5,124.4,539.5,122.6z M561.9,69.2c-1.7,2-2.6,4.3-2.6,6.7c0,2.4,0.9,4.6,2.7,6.6c1.8,2,4,3,6.8,3
				c2.8,0,5.1-1,7-2.9c1.9-2,2.9-4.2,2.9-6.7c0-2.5-0.9-4.7-2.7-6.7c-1.8-2-4.2-3-7.1-3C566,66.2,563.6,67.2,561.9,69.2z"/>
		</g>
		<g>
			<linearGradient id="SVGID_1_" gradientUnits="userSpaceOnUse" x1="158.5919" y1="101.0737" x2="179.5109" y2="88.9962">
				<stop  offset="0" style="stop-color:#501D66"/>
				<stop  offset="1" style="stop-color:#501D66;stop-opacity:0"/>
			</linearGradient>
			<path class="st2" d="M177.5,94.2c-1.1,2-4,3.1-8.8,3.1c-5.4,0-8.5-1.4-9.3-4.2c-0.5-1.3-0.7-3.2-0.7-5.8v9c0,2.6,0.2,4.5,0.7,5.8
				c0.8,2.8,3.9,4.2,9.3,4.2c4.8,0,7.8-1,8.8-3.1c0.5-1.1,0.9-2,1-2.9c0.1-0.9,0.2-2.2,0.2-3.9v-9c0,1.7-0.1,3-0.2,3.9
				C178.3,92.2,178,93.1,177.5,94.2z"/>
			<linearGradient id="SVGID_2_" gradientUnits="userSpaceOnUse" x1="118.8606" y1="101.0628" x2="139.7364" y2="89.0102">
				<stop  offset="0" style="stop-color:#501D66"/>
				<stop  offset="1" style="stop-color:#501D66;stop-opacity:0"/>
			</linearGradient>
			<path class="st3" d="M137.6,94.2c-1,2-3.9,3.1-8.7,3.1c-4.8,0-7.7-1-8.7-3.1c-0.5-1.1-0.9-2.1-1-3c-0.1-0.9-0.2-2.2-0.2-3.9v9
				c0,1.7,0.1,3,0.2,3.9c0.1,0.9,0.4,1.9,1,3c1.1,2,4,3.1,8.7,3.1c4.8,0,7.7-1,8.7-3.1c0.6-1.1,1-2,1.1-2.9c0.1-0.9,0.2-2.2,0.2-3.9
				v-9c0,1.7-0.1,3-0.2,3.9C138.5,92.2,138.2,93.1,137.6,94.2z"/>
			<linearGradient id="SVGID_3_" gradientUnits="userSpaceOnUse" x1="194.8788" y1="99.9183" x2="238.7932" y2="74.5643">
				<stop  offset="0" style="stop-color:#501D66"/>
				<stop  offset="1" style="stop-color:#501D66;stop-opacity:0"/>
			</linearGradient>
			<path class="st4" d="M245,94.2c-1.1,2-3.6,2.9-7.8,2.9c-4.1,0-6.9-0.5-8.3-1.5c-1.4-1-2.2-2.5-2.4-4.5c-2.8,4-7.5,6-14,6
				c-6.5,0-12.6-3-18.2-9c-4.5-4.8-7.2-10.2-8.1-16.3c-0.2,1.5-0.3,3-0.3,4.5c0,7.9,2.8,14.8,8.4,20.8c5.6,6,11.7,9,18.2,9
				c6.5,0,11.2-2,14-6c0.2,2,1,3.5,2.4,4.5c1.4,1,4.2,1.5,8.3,1.5c4.1,0,6.7-1,7.8-2.9c0.5-1.1,0.9-2.1,1-3c0.1-0.9,0.2-2.2,0.2-3.9
				v-9c0,1.7-0.1,3-0.2,3.9C245.9,92.1,245.5,93.1,245,94.2z"/>
			<linearGradient id="SVGID_4_" gradientUnits="userSpaceOnUse" x1="265.6306" y1="96.9095" x2="290.6937" y2="82.4393">
				<stop  offset="0" style="stop-color:#501D66"/>
				<stop  offset="1" style="stop-color:#501D66;stop-opacity:0"/>
			</linearGradient>
			<path class="st5" d="M293.6,96.2c-1.1,0.5-2.1,0.9-3,1c-0.9,0.1-2.1,0.2-3.8,0.2c-7.9,0-13.8-1.8-17.9-5.3
				c-4.1-3.6-6.1-9.6-6.1-18v9c0,8.5,2,14.5,6.1,18c4.1,3.6,10,5.3,17.9,5.3c1.7,0,2.9-0.1,3.8-0.2c0.9-0.1,1.9-0.4,3-1
				c2.1-1.1,3.2-4,3.2-8.7c0-1.7-0.2-3.2-0.5-4.3C295.8,94.2,294.9,95.6,293.6,96.2z"/>
			<linearGradient id="SVGID_5_" gradientUnits="userSpaceOnUse" x1="252.6101" y1="62.3941" x2="262.4787" y2="56.6965">
				<stop  offset="0" style="stop-color:#501D66"/>
				<stop  offset="1" style="stop-color:#501D66;stop-opacity:0"/>
			</linearGradient>
			<path class="st6" d="M258.2,57.6c-1.7,0-3-0.6-4.1-1.9c-0.6-0.7-1.1-1.8-1.3-3.1c-0.2,1.4-0.3,3.2-0.3,5.5c0,3.1,0.5,5.3,1.6,6.6
				c1.1,1.3,2.5,1.9,4.1,1.9c1.7,0,3.2-0.1,4.6-0.3v-9C261.4,57.5,259.8,57.6,258.2,57.6z"/>
			<linearGradient id="SVGID_6_" gradientUnits="userSpaceOnUse" x1="282.2094" y1="65.7232" x2="300.9652" y2="54.8946">
				<stop  offset="0" style="stop-color:#501D66"/>
				<stop  offset="1" style="stop-color:#501D66;stop-opacity:0"/>
			</linearGradient>
			<path class="st7" d="M296.8,56.6c-1.1,0.5-2.1,0.9-3,1c-0.9,0.1-2.2,0.2-3.9,0.2l-7.4-0.5v9l7.4,0.5c1.7,0,3-0.1,3.9-0.2
				c0.9-0.1,1.9-0.4,3-1c2-1.1,3.1-4,3.1-8.7c0-1.8-0.1-3.3-0.4-4.6C299,54.5,298.1,55.9,296.8,56.6z"/>
			<linearGradient id="SVGID_7_" gradientUnits="userSpaceOnUse" x1="307.053" y1="35.1619" x2="325.7224" y2="24.3831">
				<stop  offset="0" style="stop-color:#501D66"/>
				<stop  offset="1" style="stop-color:#501D66;stop-opacity:0"/>
			</linearGradient>
			<path class="st8" d="M321.7,28.9c-1.4,0.5-3.3,0.7-5.7,0.7c-2.4,0-4.3-0.2-5.7-0.7c-1.4-0.5-2.4-1.2-3-2.4
				c-0.4-0.9-0.7-1.7-0.9-2.4c0,0.2-0.1,0.4-0.1,0.6c-0.1,0.9-0.2,2.2-0.2,3.9c0,1.7,0.1,3,0.2,3.9c0.1,0.9,0.5,1.9,1,3
				c0.6,1.1,1.6,1.9,3,2.4c0.3,0.1,0.7,0.2,1,0.3c1.3-0.3,2.9-0.4,4.7-0.4c1.8,0,3.3,0.2,4.5,0.5c0.4-0.1,0.8-0.2,1.1-0.3
				c1.4-0.5,2.4-1.2,3-2.3c0.6-1.1,0.9-2.1,1-2.9c0.1-0.9,0.2-2.2,0.2-3.9c0-1.7-0.1-3-0.2-3.9c0-0.2-0.1-0.4-0.1-0.6
				c-0.2,0.7-0.5,1.5-0.9,2.3C324.2,27.7,323.2,28.5,321.7,28.9z"/>
			<linearGradient id="SVGID_8_" gradientUnits="userSpaceOnUse" x1="305.9934" y1="101.1947" x2="326.869" y2="89.1422">
				<stop  offset="0" style="stop-color:#501D66"/>
				<stop  offset="1" style="stop-color:#501D66;stop-opacity:0"/>
			</linearGradient>
			<path class="st9" d="M324.7,94.4c-1,2-3.9,2.9-8.7,2.9c-4.8,0-7.7-1-8.7-3.1c-0.5-1.1-0.9-2.1-1-2.9c-0.1-0.8-0.2-2.2-0.2-4v9
				c0,1.8,0.1,3.1,0.2,4c0.1,0.8,0.4,1.8,1,2.9c1.1,2,4,3.1,8.7,3.1c4.8,0,7.7-1,8.7-2.9c0.6-1.1,1-2.1,1.1-3
				c0.1-0.9,0.2-2.2,0.2-3.9v-9c0,1.7-0.1,3-0.2,3.9C325.6,92.3,325.3,93.3,324.7,94.4z"/>
			<linearGradient id="SVGID_9_" gradientUnits="userSpaceOnUse" x1="336.486" y1="95.6201" x2="357.983" y2="83.2088">
				<stop  offset="0" style="stop-color:#501D66"/>
				<stop  offset="1" style="stop-color:#501D66;stop-opacity:0"/>
			</linearGradient>
			<path class="st10" d="M355.7,97.1c-7.6,0-13-1.8-16.1-5.5c-3.1-3.7-4.6-9.8-4.6-18.3v9c0,8.5,1.5,14.6,4.6,18.3
				c3.1,3.7,8.5,5.5,16.1,5.5c2.4,0,4.3-0.7,5.6-2c1.3-1.3,1.9-4,1.9-8c0-1.8-0.1-3.3-0.4-4.6c-0.3,1.6-0.8,2.8-1.6,3.5
				C360,96.5,358.2,97.1,355.7,97.1z"/>
			<linearGradient id="SVGID_10_" gradientUnits="userSpaceOnUse" x1="368.4529" y1="96.4508" x2="393.6511" y2="81.9026">
				<stop  offset="0" style="stop-color:#501D66"/>
				<stop  offset="1" style="stop-color:#501D66;stop-opacity:0"/>
			</linearGradient>
			<path class="st11" d="M390.8,97.1c-9.1,0-15.6-1.8-19.3-5.5c-3.7-3.7-5.6-9.8-5.6-18.3v9c0,8.5,1.9,14.6,5.6,18.3
				c3.7,3.7,10.1,5.5,19.3,5.5c2.9,0,5.1-0.7,6.7-2c1.5-1.3,2.3-4,2.3-8c0-1.8-0.2-3.3-0.4-4.6c-0.4,1.6-1,2.8-1.9,3.5
				C395.9,96.5,393.6,97.1,390.8,97.1z"/>
			<linearGradient id="SVGID_11_" gradientUnits="userSpaceOnUse" x1="413.1689" y1="99.9182" x2="457.0836" y2="74.5641">
				<stop  offset="0" style="stop-color:#501D66"/>
				<stop  offset="1" style="stop-color:#501D66;stop-opacity:0"/>
			</linearGradient>
			<path class="st12" d="M463.3,94.2c-1.1,2-3.6,2.9-7.8,2.9c-4.1,0-6.9-0.5-8.3-1.5c-1.4-1-2.2-2.5-2.4-4.5c-2.8,4-7.5,6-14,6
				c-6.5,0-12.6-3-18.2-9c-4.5-4.8-7.2-10.2-8.1-16.3c-0.2,1.5-0.3,3-0.3,4.5c0,7.9,2.8,14.8,8.4,20.8c5.6,6,11.7,9,18.2,9
				c6.5,0,11.2-2,14-6c0.2,2,1,3.5,2.4,4.5c1.4,1,4.2,1.5,8.3,1.5c4.1,0,6.7-1,7.8-2.9c0.5-1.1,0.9-2.1,1-3c0.1-0.9,0.2-2.2,0.2-3.9
				v-9c0,1.7-0.1,3-0.2,3.9C464.1,92.1,463.8,93.1,463.3,94.2z"/>
			<linearGradient id="SVGID_12_" gradientUnits="userSpaceOnUse" x1="494.4082" y1="102.237" x2="535.8234" y2="78.326">
				<stop  offset="0" style="stop-color:#501D66"/>
				<stop  offset="1" style="stop-color:#501D66;stop-opacity:0"/>
			</linearGradient>
			<path class="st13" d="M506.4,95.8c-6.2,0-10.7-1.7-13.5-5.2v9c2.8,3.5,7.3,5.2,13.5,5.2c6.2,0,12-2.9,17.5-8.7
				c5.5-5.8,8.2-12.6,8.2-20.3c0-1.5-0.1-3-0.3-4.5c-0.9,5.9-3.5,11.1-7.9,15.8C518.4,92.9,512.6,95.8,506.4,95.8z"/>
			<linearGradient id="SVGID_13_" gradientUnits="userSpaceOnUse" x1="473.4245" y1="127.0991" x2="493.9158" y2="115.2684">
				<stop  offset="0" style="stop-color:#501D66"/>
				<stop  offset="1" style="stop-color:#501D66;stop-opacity:0"/>
			</linearGradient>
			<path class="st14" d="M491.7,120.2c-0.6,1.1-1.5,1.9-2.9,2.3c-1.4,0.5-3.2,0.7-5.6,0.7c-2.3,0-4.2-0.2-5.6-0.7
				c-1.4-0.5-2.4-1.2-2.9-2.3c-0.6-1.1-0.9-2-1-2.8c-0.1-0.8-0.2-2.1-0.2-3.9v9c0,1.7,0.1,3,0.2,3.9c0.1,0.8,0.5,1.8,1,2.8
				c0.6,1.1,1.5,1.8,2.9,2.3c1.4,0.5,3.3,0.7,5.6,0.7c2.3,0,4.2-0.2,5.6-0.7c1.4-0.5,2.3-1.2,2.9-2.3c0.6-1.1,0.9-2.1,1-2.9
				c0.1-0.8,0.2-2.1,0.2-3.9v-9c0,1.7-0.1,3-0.2,3.9C492.6,118.2,492.3,119.1,491.7,120.2z"/>
			<linearGradient id="SVGID_14_" gradientUnits="userSpaceOnUse" x1="539.387" y1="127.0991" x2="559.8784" y2="115.2684">
				<stop  offset="0" style="stop-color:#501D66"/>
				<stop  offset="1" style="stop-color:#501D66;stop-opacity:0"/>
			</linearGradient>
			<path class="st15" d="M557.7,120.2c-0.6,1.1-1.5,1.9-2.9,2.3c-1.4,0.5-3.2,0.7-5.6,0.7c-2.3,0-4.2-0.2-5.6-0.7
				c-1.4-0.5-2.4-1.2-2.9-2.3c-0.6-1.1-0.9-2-1-2.8c-0.1-0.8-0.2-2.1-0.2-3.9v9c0,1.7,0.1,3,0.2,3.9c0.1,0.8,0.5,1.8,1,2.8
				c0.6,1.1,1.5,1.8,2.9,2.3c1.4,0.5,3.3,0.7,5.6,0.7c2.3,0,4.2-0.2,5.6-0.7c1.4-0.5,2.3-1.2,2.9-2.3c0.6-1.1,0.9-2.1,1-2.9
				c0.1-0.8,0.2-2.1,0.2-3.9v-9c0,1.7-0.1,3-0.2,3.9C558.6,118.2,558.2,119.1,557.7,120.2z"/>
			<linearGradient id="SVGID_15_" gradientUnits="userSpaceOnUse" x1="560.3707" y1="102.237" x2="601.7859" y2="78.326">
				<stop  offset="0" style="stop-color:#501D66"/>
				<stop  offset="1" style="stop-color:#501D66;stop-opacity:0"/>
			</linearGradient>
			<path class="st16" d="M589.8,87.1c-5.5,5.8-11.3,8.7-17.5,8.7c-6.2,0-10.7-1.7-13.5-5.2v9c2.8,3.5,7.3,5.2,13.5,5.2
				c6.2,0,12-2.9,17.5-8.7c5.5-5.8,8.2-12.6,8.2-20.3c0-1.5-0.1-3-0.3-4.5C596.8,77.1,594.2,82.4,589.8,87.1z"/>
			<linearGradient id="SVGID_16_" gradientUnits="userSpaceOnUse" x1="312.5013" y1="40.2104" x2="319.4412" y2="36.2036">
				<stop  offset="0" style="stop-color:#501D66"/>
				<stop  offset="1" style="stop-color:#501D66;stop-opacity:0"/>
			</linearGradient>
			<path class="st17" d="M311.3,38.2c1.3,0.3,2.8,0.4,4.7,0.4c1.8,0,3.3-0.1,4.6-0.4c-1.3-0.3-2.8-0.5-4.5-0.5
				C314.2,37.8,312.6,37.9,311.3,38.2z"/>
		</g>
	</g>
	<g>
		<g id="PATAS_1_">
			<g>
				<path class="st18" d="M59.1,97.1c-2.3-4.6-8.8-8.9-10.5-6.3c-0.9,1.4-1,3.2-1,4.7c0,2-0.3,4.3-0.2,6.6c6.6,4.7,10.6,6.6,13,7.2
					C60.6,105.4,60.8,100.5,59.1,97.1z"/>
				<path class="st19" d="M53.6,111c1.7,0.6,4.2,1.4,5.7,0.1c0.7-0.6,1-1.6,1.1-2.6c0,0,0,0,0,0c-2.4-0.5-6.4-2.3-13-6.6
					c0,2.6,0.5,5.2,2.3,7C50.7,109.9,52.2,110.5,53.6,111z"/>
				<g>
					<path class="st20" d="M58.7,108c-0.1,0.8-0.4,1.6-1,2.2c-1.5,1.3-4.1,0.5-5.7-0.1c-0.5-0.2-1-0.4-1.5-0.6
						c1,0.7,2.1,1.1,3.2,1.5c1.7,0.6,4.2,1.4,5.7,0.1c0.7-0.6,1-1.6,1.1-2.6c0,0,0,0,0,0C59.9,108.4,59.3,108.2,58.7,108z"/>
				</g>
			</g>
			<g>
				<path class="st18" d="M91.8,97.1c2.3-4.6,8.8-8.9,10.5-6.3c0.9,1.4,1,3.2,1,4.7c0,2,0.3,4.3,0.2,6.6c-6.6,4.7-10.6,6.6-13,7.2
					C90.3,105.4,90.1,100.5,91.8,97.1z"/>
				<path class="st19" d="M97.3,111c-1.7,0.6-4.2,1.4-5.7,0.1c-0.7-0.6-1-1.6-1.1-2.6c0,0,0,0,0,0c2.4-0.5,6.4-2.3,13-6.6
					c0,2.6-0.5,5.2-2.3,7C100.2,109.9,98.7,110.5,97.3,111z"/>
				<g>
					<path class="st20" d="M92.2,108c0.1,0.8,0.4,1.6,1,2.2c1.5,1.3,4.1,0.5,5.7-0.1c0.5-0.2,1-0.4,1.5-0.6c-1,0.7-2.1,1.1-3.2,1.5
						c-1.7,0.6-4.2,1.4-5.7,0.1c-0.7-0.6-1-1.6-1.1-2.6c0,0,0,0,0,0C91,108.4,91.6,108.2,92.2,108z"/>
				</g>
			</g>
		</g>
		<g id="COLA_1_">
			<g>
				<path class="st19" d="M78.1,39c-4.1-0.1-8.1-1.8-8.5-6.4c-0.3-4,2.9-6.5,6.5-7.4c0.8-0.2,1.6-0.4,2.5-0.4c1,0,2.1,0.1,3.1,0.5
					c1.3,0.6,2.3,2.5,1,3.6c-0.8,0.7-2.1,0.6-3.1,0.6c-0.9,0-1.9-0.2-2.7-0.5c-3.8-1.4-5.6-6.3-2.5-9.3c0.8-0.7-0.4-1.9-1.1-1.1
					c-4,3.8-1.8,10.3,3.2,12c2.3,0.8,6.1,1.1,7.7-1.2c1.5-2,0.2-4.5-1.8-5.5c-4.6-2.5-12.2,0.8-13.9,5.6c-1,2.7-0.3,5.7,1.5,8
					c2.1,2.6,5.1,3.1,8.2,3.2C79.2,40.7,79.2,39.1,78.1,39z"/>
			</g>
			<g class="st21">
				<path class="st22" d="M82.3,25.3c-0.9-0.4-2-0.5-2.9-0.5c0.8,0,1.6,0.2,2.2,0.5c1.3,0.6,2.3,2.5,1,3.6c-0.5,0.5-1.3,0.6-2.1,0.6
					c0.9,0,2,0,2.8-0.6C84.6,27.8,83.6,25.9,82.3,25.3z"/>
				<path class="st22" d="M71.7,26c0.1,0.4,0.3,0.8,0.5,1.1c0.1,0.1,0.2,0.3,0.2,0.4c0.9,1.4,2.3,2.6,4,3.1c1.1,0.4,2.4,0.6,3.8,0.6
					c-1.1,0-2.2-0.3-3.1-0.6c-1.8-0.6-3.3-1.9-4.2-3.5c-0.1-0.1-0.1-0.2-0.2-0.4c-0.2-0.4-0.4-0.8-0.5-1.2c0.3-0.2,0.5-0.4,0.8-0.6
					c0.2-0.1,0.4-0.2,0.6-0.4c1.7-0.9,3.6-1.5,5.4-1.6c-1.8-0.1-3.8,0.4-5.5,1.2c-0.2,0.1-0.4,0.2-0.6,0.3c-0.3,0.2-0.6,0.3-0.8,0.5
					c-0.6-2.3-0.1-4.7,1.8-6.6c0.1-0.1,0.1-0.1,0.2-0.1c-0.3-0.1-0.6-0.1-0.9,0.1c-2,1.9-2.4,4.6-1.7,7c-1.4,1.1-2.6,2.4-3.1,3.9
					c-1,2.7-0.3,5.7,1.5,8c2.1,2.6,5.1,3.1,8.2,3.2c0.1,0,0.1,0,0.2,0c-3-0.1-5.8-0.8-7.8-3.2c-1.8-2.2-2.5-5.3-1.5-8
					C69.6,28.2,70.5,27,71.7,26z"/>
			</g>
		</g>
		<g>
			<linearGradient id="SVGID_17_" gradientUnits="userSpaceOnUse" x1="48.6334" y1="90.7051" x2="61.9019" y2="103.5183">
				<stop  offset="0.5907" style="stop-color:#B33F3E"/>
				<stop  offset="1" style="stop-color:#B33F3E;stop-opacity:0"/>
			</linearGradient>
			<path class="st23" d="M59.1,97.1c-2.3-4.6-8.8-8.9-10.5-6.3c-0.5,0.8-0.8,1.7-0.9,2.6c3.2,4.9,7.6,8.9,12.8,11.6
				C60.5,102.2,60.2,99.3,59.1,97.1z"/>
			<linearGradient id="SVGID_18_" gradientUnits="userSpaceOnUse" x1="93.1717" y1="94.8158" x2="98.145" y2="99.6185">
				<stop  offset="0.5907" style="stop-color:#B33F3E"/>
				<stop  offset="1" style="stop-color:#B33F3E;stop-opacity:0"/>
			</linearGradient>
			<path class="st24" d="M103.2,93.6c-0.1-1-0.4-2-0.9-2.8c-1.7-2.6-8.2,1.6-10.5,6.3c-1.1,2.3-1.4,5.2-1.4,8
				C95.6,102.4,100,98.4,103.2,93.6z"/>
		</g>
		<ellipse id="CUERPO_1_" class="st18" cx="75.5" cy="72.4" rx="33.6" ry="34.7"/>
		<g class="st25">
			<linearGradient id="SVGID_19_" gradientUnits="userSpaceOnUse" x1="66.6329" y1="53.7439" x2="94.1417" y2="101.3905">
				<stop  offset="0" style="stop-color:#E2B2A3;stop-opacity:0"/>
				<stop  offset="1.497847e-02" style="stop-color:#E2B2A3;stop-opacity:2.564496e-02"/>
				<stop  offset="0.5841" style="stop-color:#E2B2A3"/>
			</linearGradient>
			<path class="st26" d="M89.2,40.7c9,6.2,14.9,16.8,14.9,28.8c0,19.2-15,34.7-33.6,34.7c-4.9,0-9.5-1.1-13.7-3
				c5.3,3.7,11.7,5.8,18.6,5.8c18.5,0,33.6-15.5,33.6-34.7C109.1,58.3,100.9,46.1,89.2,40.7z"/>
		</g>
		<path class="st19" d="M84.9,92.9c-0.1-0.2-0.2-0.4-0.3-0.6c-2.4-3-5.6,1.5-8.1,1.4c-2.3-0.1-3.8-2.1-6-2.3
			c-3.1-0.3-3.8,2.8-2.8,4.6c1,1.8,3.3,3.3,5.5,3.9c4.4,1.2,10-0.6,11.7-4.4C85.2,94.7,85.2,93.7,84.9,92.9z"/>
		<g>
			<path class="st20" d="M73.2,95.5c3.9,1.1,8.9-0.3,11.1-3.4c-2.4-2.3-5.4,1.8-7.8,1.7c-2.3-0.1-3.8-2.1-6-2.3
				c-1.1-0.1-1.9,0.2-2.4,0.7C69.2,93.7,71.2,94.9,73.2,95.5z"/>
		</g>
		<g id="OJOS_1_">
			<path class="st19" d="M55.8,59.8c0,0.1,0.1,0.2,0.1,0.3c1.1,1.8,2.7-0.6,3.9-0.5c1.1,0.1,1.7,1.3,2.8,1.5
				c1.5,0.3,1.9-1.4,1.5-2.5c-0.4-1.1-1.5-2-2.5-2.4c-2-0.8-4.8,0-5.7,2.1C55.7,58.8,55.6,59.3,55.8,59.8z"/>
			<path class="st19" d="M87.6,59.8c0,0.1,0.1,0.2,0.1,0.3c1.1,1.8,2.7-0.6,3.9-0.5c1.1,0.1,1.7,1.3,2.8,1.5
				c1.5,0.3,1.9-1.4,1.5-2.5c-0.4-1.1-1.5-2-2.5-2.4c-2-0.8-4.8,0-5.7,2.1C87.6,58.8,87.5,59.3,87.6,59.8z"/>
		</g>
		<g id="NARIZ_1_">
			<linearGradient id="SVGID_20_" gradientUnits="userSpaceOnUse" x1="76.1491" y1="69.593" x2="76.1491" y2="85.452">
				<stop  offset="0.5907" style="stop-color:#B33F3E"/>
				<stop  offset="1" style="stop-color:#B33F3E;stop-opacity:0"/>
			</linearGradient>
			<ellipse class="st27" cx="76.1" cy="77.5" rx="10.2" ry="7.9"/>
			<ellipse class="st22" cx="76.1" cy="76.6" rx="10.2" ry="7.9"/>
			<ellipse class="st19" cx="72.3" cy="76.6" rx="1.8" ry="2.1"/>
			<ellipse class="st19" cx="79.8" cy="76.6" rx="1.8" ry="2.1"/>
			<g>
				<path class="st20" d="M72.3,78.2c-0.9,0-1.7-0.8-1.8-1.9c0,0.1,0,0.2,0,0.2c0,1.2,0.8,2.1,1.8,2.1c1,0,1.8-0.9,1.8-2.1
					c0-0.1,0-0.2,0-0.2C74,77.4,73.2,78.2,72.3,78.2z"/>
				<path class="st20" d="M79.8,78.2c-0.9,0-1.7-0.8-1.8-1.9c0,0.1,0,0.2,0,0.2c0,1.2,0.8,2.1,1.8,2.1c1,0,1.8-0.9,1.8-2.1
					c0-0.1,0-0.2,0-0.2C81.5,77.4,80.7,78.2,79.8,78.2z"/>
			</g>
		</g>
		<g id="OREJAS_1_">
			<g>
				<path class="st18" d="M101.7,52.5c0.8,0.3,3.1-4.1,3.3-4.6c1.5-3.4,1.8-7.9-0.3-11.1c-0.4-0.6-0.9-1.1-1.5-1.2
					c-0.6-0.1-1.2,0.2-1.6,0.6c-1.8,1.6-3.6,3.3-5.3,4.9c-0.7,0.7-2.1,1.7-2.2,2.8C93.6,46.9,96.8,50.5,101.7,52.5z"/>
				<g class="st28">
					<path class="st19" d="M104.7,36.7c-0.4-0.6-0.9-1.1-1.5-1.2c-0.3,0-0.6,0-0.8,0.1c0.5,0.2,0.8,0.6,1.1,1.1
						c2.1,3.2,1.8,7.8,0.3,11.1c-0.3,0.6-0.6,1.2-1,1.8c-0.3,0.4-0.5,0.9-0.8,1.3c-0.3,0.4-0.6,0.8-0.9,1.1c0,0,0,0,0,0
						c0,0,0,0.1,0,0.1c0.1,0.1,0.4,0.2,0.5,0.2c0.8,0.3,3.1-4.1,3.3-4.6C106.5,44.5,106.8,39.9,104.7,36.7z"/>
				</g>
				<path class="st22" d="M100,50.6c0.4,0.2,1.8-2.4,1.9-2.7c0.8-2,1-4.6-0.2-6.5c-0.2-0.3-0.5-0.6-0.9-0.7c-0.4,0-0.7,0.1-1,0.4
					c-1,0.9-2.1,1.9-3.1,2.9c-0.4,0.4-1.2,1-1.3,1.6C95.3,47.3,97.1,49.4,100,50.6z"/>
				<g>
					<path class="st29" d="M96.9,45.6c0.1-0.6,0.9-1.2,1.3-1.6c1-1,2-1.9,3.1-2.9c0,0,0.1-0.1,0.1-0.1c-0.2-0.1-0.3-0.3-0.5-0.3
						c-0.4,0-0.7,0.1-1,0.4c-1,0.9-2.1,1.9-3.1,2.9c-0.4,0.4-1.2,1-1.3,1.6c-0.2,1.8,1.7,3.9,4.5,5c0.1,0,0.3-0.1,0.5-0.4
						C98.2,49,96.7,47.1,96.9,45.6z"/>
				</g>
			</g>
			<g>
				<path class="st18" d="M49.6,52.5c-0.8,0.3-3.1-4.1-3.3-4.6c-1.5-3.4-1.8-7.9,0.3-11.1c0.4-0.6,0.9-1.1,1.5-1.2
					c0.6-0.1,1.2,0.2,1.6,0.6c1.8,1.6,3.6,3.3,5.3,4.9c0.7,0.7,2.1,1.7,2.2,2.8C57.6,46.9,54.4,50.5,49.6,52.5z"/>
				<g class="st28">
					<path class="st19" d="M46.5,36.7c0.4-0.6,0.9-1.1,1.5-1.2c0.3,0,0.6,0,0.8,0.1c-0.5,0.2-0.8,0.6-1.1,1.1
						c-2.1,3.2-1.8,7.8-0.3,11.1c0.3,0.6,0.6,1.2,1,1.8c0.3,0.4,0.5,0.9,0.8,1.3c0.3,0.4,0.6,0.8,0.9,1.1c0,0,0,0,0,0
						c0,0,0,0.1,0,0.1c-0.1,0.1-0.4,0.2-0.5,0.2c-0.8,0.3-3.1-4.1-3.3-4.6C44.8,44.5,44.5,39.9,46.5,36.7z"/>
				</g>
				<path class="st22" d="M51.3,50.6c-0.4,0.2-1.8-2.4-1.9-2.7c-0.8-2-1-4.6,0.2-6.5c0.2-0.3,0.5-0.6,0.9-0.7c0.4,0,0.7,0.1,1,0.4
					c1,0.9,2.1,1.9,3.1,2.9c0.4,0.4,1.2,1,1.3,1.6C56,47.3,54.1,49.4,51.3,50.6z"/>
				<g>
					<path class="st29" d="M54.4,45.6c-0.1-0.6-0.9-1.2-1.3-1.6c-1-1-2-1.9-3.1-2.9c0,0-0.1-0.1-0.1-0.1c0.2-0.1,0.3-0.3,0.5-0.3
						c0.4,0,0.7,0.1,1,0.4c1,0.9,2.1,1.9,3.1,2.9c0.4,0.4,1.2,1,1.3,1.6c0.2,1.8-1.7,3.9-4.5,5c-0.1,0-0.3-0.1-0.5-0.4
						C53.1,49,54.6,47.1,54.4,45.6z"/>
				</g>
			</g>
		</g>
	</g>
</g>
</svg>
